<svg width="57" height="57" viewBox="0 0 57 57" fill="none" xmlns="http://www.w3.org/2000/svg">
<path d="M31.8486 28.5L42.0611 18.3112C42.5083 17.864 42.7596 17.2574 42.7596 16.625C42.7596 15.9925 42.5083 15.3859 42.0611 14.9387C41.6139 14.4915 41.0073 14.2402 40.3749 14.2402C39.7424 14.2402 39.1358 14.4915 38.6886 14.9387L28.4999 25.1512L18.3111 14.9387C17.8639 14.4915 17.2573 14.2402 16.6249 14.2402C15.9924 14.2402 15.3858 14.4915 14.9386 14.9387C14.4914 15.3859 14.2401 15.9925 14.2401 16.625C14.2401 17.2574 14.4914 17.864 14.9386 18.3112L25.1511 28.5L14.9386 38.6887C14.716 38.9095 14.5393 39.1722 14.4187 39.4616C14.2982 39.751 14.2361 40.0614 14.2361 40.375C14.2361 40.6885 14.2982 40.9989 14.4187 41.2883C14.5393 41.5777 14.716 41.8404 14.9386 42.0612C15.1594 42.2838 15.4221 42.4605 15.7115 42.5811C16.0009 42.7016 16.3113 42.7637 16.6249 42.7637C16.9384 42.7637 17.2488 42.7016 17.5382 42.5811C17.8276 42.4605 18.0903 42.2838 18.3111 42.0612L28.4999 31.8487L38.6886 42.0612C38.9094 42.2838 39.1721 42.4605 39.4615 42.5811C39.7509 42.7016 40.0613 42.7637 40.3749 42.7637C40.6884 42.7637 40.9988 42.7016 41.2882 42.5811C41.5776 42.4605 41.8403 42.2838 42.0611 42.0612C42.2837 41.8404 42.4604 41.5777 42.581 41.2883C42.7015 40.9989 42.7636 40.6885 42.7636 40.375C42.7636 40.0614 42.7015 39.751 42.581 39.4616C42.4604 39.1722 42.2837 38.9095 42.0611 38.6887L31.8486 28.5Z" fill="white"/>
</svg>
