<svg width="32" height="30" viewBox="0 0 32 30" fill="none" xmlns="http://www.w3.org/2000/svg">
<path d="M19.5137 4.25H12.1426C11.0973 4.25 10.25 5.09734 10.25 6.14258V13.5137C10.25 14.5589 11.0973 15.4062 12.1426 15.4062H19.5137C20.5589 15.4062 21.4062 14.5589 21.4062 13.5137V6.14258C21.4062 5.09734 20.5589 4.25 19.5137 4.25Z" stroke="#6F6F6F" stroke-width="1.0625" stroke-linejoin="round"/>
<path d="M18.7334 4.25L18.75 3.45312C18.7486 2.96042 18.5522 2.48829 18.2039 2.1399C17.8555 1.7915 17.3833 1.59515 16.8906 1.59375H9.71875C9.15568 1.59541 8.61614 1.81983 8.21799 2.21799C7.81983 2.61614 7.59541 3.15568 7.59375 3.71875V10.8906C7.59515 11.3833 7.7915 11.8555 8.1399 12.2039C8.48829 12.5522 8.96042 12.7486 9.45312 12.75H10.25" stroke="#6F6F6F" stroke-width="1.0625" stroke-linecap="round" stroke-linejoin="round"/>
<path d="M6.73295 22H5.85227C5.80019 21.7467 5.70904 21.5241 5.57884 21.3324C5.45099 21.1406 5.29474 20.9796 5.11009 20.8494C4.92779 20.7169 4.72538 20.6174 4.50284 20.5511C4.2803 20.4848 4.0483 20.4517 3.80682 20.4517C3.36648 20.4517 2.96757 20.563 2.61009 20.7855C2.25497 21.008 1.97206 21.3359 1.76136 21.7692C1.55303 22.2024 1.44886 22.7339 1.44886 23.3636C1.44886 23.9934 1.55303 24.5249 1.76136 24.9581C1.97206 25.3913 2.25497 25.7192 2.61009 25.9418C2.96757 26.1643 3.36648 26.2756 3.80682 26.2756C4.0483 26.2756 4.2803 26.2424 4.50284 26.1761C4.72538 26.1098 4.92779 26.0116 5.11009 25.8814C5.29474 25.7488 5.45099 25.5866 5.57884 25.3949C5.70904 25.2008 5.80019 24.9782 5.85227 24.7273H6.73295C6.66667 25.099 6.54593 25.4316 6.37074 25.7251C6.19555 26.0187 5.97775 26.2685 5.71733 26.4744C5.45691 26.678 5.16454 26.8331 4.8402 26.9396C4.51823 27.0462 4.17377 27.0994 3.80682 27.0994C3.18655 27.0994 2.63494 26.9479 2.15199 26.6449C1.66903 26.3419 1.28906 25.911 1.01207 25.3523C0.735085 24.7936 0.596591 24.1307 0.596591 23.3636C0.596591 22.5966 0.735085 21.9337 1.01207 21.375C1.28906 20.8163 1.66903 20.3854 2.15199 20.0824C2.63494 19.7794 3.18655 19.6278 3.80682 19.6278C4.17377 19.6278 4.51823 19.6811 4.8402 19.7876C5.16454 19.8942 5.45691 20.0504 5.71733 20.2564C5.97775 20.46 6.19555 20.7086 6.37074 21.0021C6.54593 21.2933 6.66667 21.6259 6.73295 22ZM10.2583 27.1136C9.76592 27.1136 9.33387 26.9964 8.96218 26.7621C8.59286 26.5277 8.30404 26.1998 8.0957 25.7784C7.88974 25.357 7.78675 24.8646 7.78675 24.3011C7.78675 23.733 7.88974 23.237 8.0957 22.8132C8.30404 22.3894 8.59286 22.0604 8.96218 21.826C9.33387 21.5916 9.76592 21.4744 10.2583 21.4744C10.7508 21.4744 11.1816 21.5916 11.551 21.826C11.9226 22.0604 12.2115 22.3894 12.4174 22.8132C12.6258 23.237 12.7299 23.733 12.7299 24.3011C12.7299 24.8646 12.6258 25.357 12.4174 25.7784C12.2115 26.1998 11.9226 26.5277 11.551 26.7621C11.1816 26.9964 10.7508 27.1136 10.2583 27.1136ZM10.2583 26.3608C10.6324 26.3608 10.9402 26.2649 11.1816 26.0732C11.4231 25.8814 11.6019 25.6293 11.7179 25.3168C11.8339 25.0043 11.8919 24.6657 11.8919 24.3011C11.8919 23.9366 11.8339 23.5968 11.7179 23.282C11.6019 22.9671 11.4231 22.7126 11.1816 22.5185C10.9402 22.3243 10.6324 22.2273 10.2583 22.2273C9.88429 22.2273 9.57653 22.3243 9.33505 22.5185C9.09357 22.7126 8.91483 22.9671 8.79883 23.282C8.68282 23.5968 8.62482 23.9366 8.62482 24.3011C8.62482 24.6657 8.68282 25.0043 8.79883 25.3168C8.91483 25.6293 9.09357 25.8814 9.33505 26.0732C9.57653 26.2649 9.88429 26.3608 10.2583 26.3608ZM14.0092 29.0455V21.5455H14.8189V22.4119H14.9183C14.9799 22.3172 15.0651 22.1965 15.174 22.0497C15.2853 21.9006 15.4439 21.768 15.6499 21.652C15.8582 21.5336 16.1399 21.4744 16.495 21.4744C16.9543 21.4744 17.3591 21.5893 17.7095 21.8189C18.0599 22.0485 18.3333 22.3741 18.5298 22.7955C18.7263 23.2169 18.8246 23.714 18.8246 24.2869C18.8246 24.8646 18.7263 25.3653 18.5298 25.7891C18.3333 26.2105 18.0611 26.5372 17.7131 26.7692C17.3651 26.9988 16.9638 27.1136 16.5092 27.1136C16.1589 27.1136 15.8783 27.0556 15.6676 26.9396C15.4569 26.8213 15.2947 26.6875 15.1811 26.5384C15.0675 26.3868 14.9799 26.2614 14.9183 26.1619H14.8473V29.0455H14.0092ZM14.8331 24.2727C14.8331 24.6847 14.8935 25.0481 15.0142 25.3629C15.1349 25.6754 15.3113 25.9205 15.5433 26.098C15.7753 26.2732 16.0594 26.3608 16.3956 26.3608C16.746 26.3608 17.0384 26.2685 17.2727 26.0838C17.5095 25.8968 17.687 25.6458 17.8054 25.331C17.9261 25.0137 17.9865 24.661 17.9865 24.2727C17.9865 23.8892 17.9273 23.5436 17.8089 23.2358C17.6929 22.9257 17.5166 22.6806 17.2798 22.5007C17.0455 22.3184 16.7507 22.2273 16.3956 22.2273C16.0547 22.2273 15.7682 22.3137 15.5362 22.4865C15.3042 22.657 15.129 22.8961 15.0107 23.2038C14.8923 23.5092 14.8331 23.8655 14.8331 24.2727ZM20.103 27V21.5455H20.9411V27H20.103ZM20.5291 20.6364C20.3658 20.6364 20.2249 20.5807 20.1065 20.4695C19.9905 20.3582 19.9325 20.2244 19.9325 20.0682C19.9325 19.9119 19.9905 19.7782 20.1065 19.6669C20.2249 19.5556 20.3658 19.5 20.5291 19.5C20.6925 19.5 20.8321 19.5556 20.9482 19.6669C21.0665 19.7782 21.1257 19.9119 21.1257 20.0682C21.1257 20.2244 21.0665 20.3582 20.9482 20.4695C20.8321 20.5807 20.6925 20.6364 20.5291 20.6364ZM24.0811 27.1278C23.7355 27.1278 23.4218 27.0627 23.1401 26.9325C22.8584 26.8 22.6346 26.6094 22.4689 26.3608C22.3032 26.1098 22.2203 25.8068 22.2203 25.4517C22.2203 25.1392 22.2819 24.8859 22.405 24.6918C22.5281 24.4953 22.6926 24.3414 22.8986 24.2301C23.1046 24.1188 23.3319 24.036 23.5804 23.9815C23.8314 23.9247 24.0835 23.8797 24.3368 23.8466C24.6683 23.804 24.937 23.772 25.1429 23.7507C25.3513 23.727 25.5028 23.688 25.5975 23.6335C25.6945 23.5791 25.7431 23.4844 25.7431 23.3494V23.321C25.7431 22.9706 25.6472 22.6984 25.4554 22.5043C25.266 22.3101 24.9784 22.2131 24.5925 22.2131C24.1924 22.2131 23.8787 22.3007 23.6515 22.4759C23.4242 22.651 23.2644 22.8381 23.1721 23.0369L22.3766 22.7528C22.5186 22.4214 22.708 22.1634 22.9448 21.9787C23.1839 21.7917 23.4443 21.6615 23.726 21.5881C24.0101 21.5123 24.2895 21.4744 24.5641 21.4744C24.7393 21.4744 24.9405 21.4957 25.1678 21.5384C25.3974 21.5786 25.6188 21.6626 25.8319 21.7905C26.0473 21.9183 26.226 22.1113 26.3681 22.3693C26.5101 22.6274 26.5811 22.973 26.5811 23.4062V27H25.7431V26.2614H25.7005C25.6436 26.3797 25.5489 26.5064 25.4164 26.6413C25.2838 26.7763 25.1074 26.8911 24.8873 26.9858C24.6671 27.0805 24.3984 27.1278 24.0811 27.1278ZM24.209 26.375C24.5404 26.375 24.8198 26.3099 25.0471 26.1797C25.2767 26.0495 25.4495 25.8814 25.5655 25.6754C25.6839 25.4695 25.7431 25.2528 25.7431 25.0256V24.2585C25.7076 24.3011 25.6294 24.3402 25.5087 24.3757C25.3903 24.4089 25.253 24.4384 25.0968 24.4645C24.9429 24.4882 24.7926 24.5095 24.6458 24.5284C24.5014 24.545 24.3842 24.5592 24.2942 24.571C24.0764 24.5994 23.8728 24.6456 23.6834 24.7095C23.4964 24.7711 23.3449 24.8646 23.2289 24.9901C23.1152 25.1132 23.0584 25.2812 23.0584 25.4943C23.0584 25.7855 23.1661 26.0057 23.3816 26.1548C23.5994 26.3016 23.8752 26.375 24.209 26.375ZM28.1108 27V21.5455H28.9205V22.3693H28.9773C29.0767 22.0994 29.2566 21.8804 29.517 21.7124C29.7775 21.5443 30.071 21.4602 30.3977 21.4602C30.4593 21.4602 30.5362 21.4614 30.6286 21.4638C30.7209 21.4661 30.7907 21.4697 30.8381 21.4744V22.3267C30.8097 22.3196 30.7446 22.3089 30.6428 22.2947C30.5433 22.2782 30.438 22.2699 30.3267 22.2699C30.0616 22.2699 29.8248 22.3255 29.6165 22.4368C29.4105 22.5457 29.2472 22.6972 29.1264 22.8913C29.008 23.0831 28.9489 23.3021 28.9489 23.5483V27H28.1108Z" fill="#6F6F6F"/>
</svg>
