<svg width="12" height="15" viewBox="0 0 12 15" fill="none" xmlns="http://www.w3.org/2000/svg">
<path d="M11.3333 3.50016H8.66667V2.8335C8.66667 2.30306 8.45595 1.79436 8.08088 1.41928C7.70581 1.04421 7.1971 0.833496 6.66667 0.833496H5.33333C4.8029 0.833496 4.29419 1.04421 3.91912 1.41928C3.54405 1.79436 3.33333 2.30306 3.33333 2.8335V3.50016H0.666667C0.489856 3.50016 0.320286 3.5704 0.195262 3.69542C0.0702379 3.82045 0 3.99002 0 4.16683C0 4.34364 0.0702379 4.51321 0.195262 4.63823C0.320286 4.76326 0.489856 4.8335 0.666667 4.8335H1.33333V12.1668C1.33333 12.6973 1.54405 13.206 1.91912 13.581C2.29419 13.9561 2.8029 14.1668 3.33333 14.1668H8.66667C9.1971 14.1668 9.70581 13.9561 10.0809 13.581C10.456 13.206 10.6667 12.6973 10.6667 12.1668V4.8335H11.3333C11.5101 4.8335 11.6797 4.76326 11.8047 4.63823C11.9298 4.51321 12 4.34364 12 4.16683C12 3.99002 11.9298 3.82045 11.8047 3.69542C11.6797 3.5704 11.5101 3.50016 11.3333 3.50016ZM4.66667 2.8335C4.66667 2.65668 4.7369 2.48712 4.86193 2.36209C4.98695 2.23707 5.15652 2.16683 5.33333 2.16683H6.66667C6.84348 2.16683 7.01305 2.23707 7.13807 2.36209C7.2631 2.48712 7.33333 2.65668 7.33333 2.8335V3.50016H4.66667V2.8335ZM9.33333 12.1668C9.33333 12.3436 9.2631 12.5132 9.13807 12.6382C9.01305 12.7633 8.84348 12.8335 8.66667 12.8335H3.33333C3.15652 12.8335 2.98695 12.7633 2.86193 12.6382C2.7369 12.5132 2.66667 12.3436 2.66667 12.1668V4.8335H9.33333V12.1668Z" fill="#6F6F6F"/>
</svg>
