<svg width="14" height="15" viewBox="0 0 14 15" fill="none" xmlns="http://www.w3.org/2000/svg">
<path d="M13.6667 4.32684C13.6672 4.2391 13.6504 4.15213 13.6172 4.0709C13.584 3.98968 13.5351 3.9158 13.4733 3.85351L10.6467 1.02684C10.5844 0.965053 10.5105 0.916169 10.4293 0.882993C10.3481 0.849817 10.2611 0.833 10.1733 0.833507C10.0856 0.833 9.99863 0.849817 9.9174 0.882993C9.83618 0.916169 9.7623 0.965053 9.70001 1.02684L7.81334 2.91351L0.526673 10.2002C0.464885 10.2625 0.416002 10.3363 0.382825 10.4176C0.349649 10.4988 0.332832 10.5858 0.333339 10.6735V13.5002C0.333339 13.677 0.403577 13.8466 0.528602 13.9716C0.653626 14.0966 0.823195 14.1668 1.00001 14.1668H3.82667C3.91996 14.1719 4.01327 14.1573 4.10055 14.124C4.18784 14.0907 4.26715 14.0394 4.33334 13.9735L11.58 6.68684L13.4733 4.83351C13.5342 4.76889 13.5838 4.69453 13.62 4.61351C13.6264 4.56037 13.6264 4.50665 13.62 4.45351C13.6231 4.42247 13.6231 4.39121 13.62 4.36017L13.6667 4.32684ZM3.55334 12.8335H1.66667V10.9468L8.28667 4.32684L10.1733 6.21351L3.55334 12.8335ZM11.1133 5.27351L9.22667 3.38684L10.1733 2.44684L12.0533 4.32684L11.1133 5.27351Z" fill="#6F6F6F"/>
</svg>
