<svg width="16" height="15" viewBox="0 0 16 15" fill="none" xmlns="http://www.w3.org/2000/svg">
<path d="M8.073 15H11.823V13.5H8.073C4.818 13.5 2.073 10.755 2.073 7.5C2.073 4.245 4.818 1.5 8.073 1.5C11.328 1.5 14.073 4.245 14.073 7.5V8.5725C14.073 9.165 13.5405 9.75 12.948 9.75C12.3555 9.75 11.823 9.165 11.823 8.5725V7.5C11.823 5.43 10.143 3.75 8.073 3.75C6.003 3.75 4.323 5.43 4.323 7.5C4.323 9.57 6.003 11.25 8.073 11.25C9.108 11.25 10.053 10.83 10.728 10.1475C11.2155 10.815 12.0555 11.25 12.948 11.25C14.4255 11.25 15.573 10.05 15.573 8.5725V7.5C15.573 3.36 12.213 0 8.073 0C3.933 0 0.572998 3.36 0.572998 7.5C0.572998 11.64 3.933 15 8.073 15ZM8.073 9.75C6.828 9.75 5.823 8.745 5.823 7.5C5.823 6.255 6.828 5.25 8.073 5.25C9.318 5.25 10.323 6.255 10.323 7.5C10.323 8.745 9.318 9.75 8.073 9.75Z" fill="#6F6F6F"/>
</svg>
