<svg width="16" height="16" viewBox="0 0 16 16" fill="none" xmlns="http://www.w3.org/2000/svg">
<path d="M8.30908 0.831543C7.32417 0.831543 6.3489 1.03035 5.43896 1.41662C4.52901 1.80289 3.70222 2.36905 3.00578 3.08278C1.59926 4.52422 0.809082 6.47924 0.809082 8.51775C0.809082 11.915 2.96158 14.7974 5.93908 15.8196C6.31408 15.8811 6.43408 15.6429 6.43408 15.4353V14.1364C4.35658 14.5975 3.91408 13.1064 3.91408 13.1064C3.56908 12.2148 3.08158 11.9765 3.08158 11.9765C2.39908 11.5 3.13408 11.5154 3.13408 11.5154C3.88408 11.5692 4.28158 12.307 4.28158 12.307C4.93408 13.4753 6.03658 13.1295 6.46408 12.945C6.53158 12.4454 6.72658 12.1072 6.93658 11.915C5.27158 11.7229 3.52408 11.0619 3.52408 8.13344C3.52408 7.28027 3.80908 6.59619 4.29658 6.05047C4.22158 5.85832 3.95908 5.05895 4.37158 4.02132C4.37158 4.02132 5.00158 3.81379 6.43408 4.80531C7.02658 4.63621 7.67158 4.55167 8.30908 4.55167C8.94658 4.55167 9.59158 4.63621 10.1841 4.80531C11.6166 3.81379 12.2466 4.02132 12.2466 4.02132C12.6591 5.05895 12.3966 5.85832 12.3216 6.05047C12.8091 6.59619 13.0941 7.28027 13.0941 8.13344C13.0941 11.0696 11.3391 11.7152 9.66658 11.9074C9.93658 12.1456 10.1841 12.6145 10.1841 13.3293V15.4353C10.1841 15.6429 10.3041 15.8888 10.6866 15.8196C13.6641 14.7897 15.8091 11.915 15.8091 8.51775C15.8091 7.50838 15.6151 6.5089 15.2382 5.57636C14.8613 4.64383 14.3088 3.79651 13.6124 3.08278C12.9159 2.36905 12.0891 1.80289 11.1792 1.41662C10.2693 1.03035 9.294 0.831543 8.30908 0.831543Z" fill="#6F6F6F"/>
</svg>
