<svg width="15" height="16" viewBox="0 0 15 16" fill="none" xmlns="http://www.w3.org/2000/svg">
<path d="M13.3034 0.831543C13.7444 0.831543 14.1674 1.00714 14.4792 1.3197C14.7911 1.63226 14.9663 2.05618 14.9663 2.49821V14.1649C14.9663 14.6069 14.7911 15.0308 14.4792 15.3434C14.1674 15.6559 13.7444 15.8315 13.3034 15.8315H1.66292C1.22189 15.8315 0.798917 15.6559 0.487058 15.3434C0.1752 15.0308 0 14.6069 0 14.1649V2.49821C0 2.05618 0.1752 1.63226 0.487058 1.3197C0.798917 1.00714 1.22189 0.831543 1.66292 0.831543H13.3034ZM12.8876 13.7482V9.33154C12.8876 8.61104 12.6021 7.92004 12.0937 7.41057C11.5854 6.9011 10.896 6.61488 10.1771 6.61488C9.47034 6.61488 8.64719 7.04821 8.24809 7.69821V6.77321H5.92831V13.7482H8.24809V9.63988C8.24809 8.99821 8.7636 8.47321 9.40382 8.47321C9.71254 8.47321 10.0086 8.59613 10.2269 8.81492C10.4452 9.03371 10.5679 9.33046 10.5679 9.63988V13.7482H12.8876ZM3.22607 5.46488C3.59654 5.46488 3.95183 5.31738 4.21379 5.05483C4.47575 4.79228 4.62292 4.43618 4.62292 4.06488C4.62292 3.28988 3.99933 2.65654 3.22607 2.65654C2.85339 2.65654 2.49598 2.80492 2.23246 3.06903C1.96894 3.33315 1.8209 3.69136 1.8209 4.06488C1.8209 4.83988 2.45281 5.46488 3.22607 5.46488ZM4.3818 13.7482V6.77321H2.07865V13.7482H4.3818Z" fill="#6F6F6F"/>
</svg>
