<svg width="28" height="28" viewBox="0 0 28 28" fill="none" xmlns="http://www.w3.org/2000/svg">
<path d="M11.1562 2.625H3.71875C3.11469 2.625 2.625 3.11469 2.625 3.71875V11.1562C2.625 11.7603 3.11469 12.25 3.71875 12.25H11.1562C11.7603 12.25 12.25 11.7603 12.25 11.1562V3.71875C12.25 3.11469 11.7603 2.625 11.1562 2.625Z" stroke="#313131" stroke-width="1.75" stroke-linecap="round" stroke-linejoin="round"/>
<path d="M24.2812 2.625H16.8438C16.2397 2.625 15.75 3.11469 15.75 3.71875V11.1562C15.75 11.7603 16.2397 12.25 16.8438 12.25H24.2812C24.8853 12.25 25.375 11.7603 25.375 11.1562V3.71875C25.375 3.11469 24.8853 2.625 24.2812 2.625Z" stroke="#313131" stroke-width="1.75" stroke-linecap="round" stroke-linejoin="round"/>
<path d="M11.1562 15.75H3.71875C3.11469 15.75 2.625 16.2397 2.625 16.8438V24.2812C2.625 24.8853 3.11469 25.375 3.71875 25.375H11.1562C11.7603 25.375 12.25 24.8853 12.25 24.2812V16.8438C12.25 16.2397 11.7603 15.75 11.1562 15.75Z" stroke="#313131" stroke-width="1.75" stroke-linecap="round" stroke-linejoin="round"/>
<path d="M24.2812 15.75H16.8438C16.2397 15.75 15.75 16.2397 15.75 16.8438V24.2812C15.75 24.8853 16.2397 25.375 16.8438 25.375H24.2812C24.8853 25.375 25.375 24.8853 25.375 24.2812V16.8438C25.375 16.2397 24.8853 15.75 24.2812 15.75Z" stroke="#313131" stroke-width="1.75" stroke-linecap="round" stroke-linejoin="round"/>
</svg>
