<svg width="23" height="32" viewBox="0 0 23 32" fill="none" xmlns="http://www.w3.org/2000/svg">
<path d="M11.625 13.7247C12.8814 13.7247 13.9 12.7062 13.9 11.4497C13.9 10.1933 12.8814 9.17471 11.625 9.17471C10.3686 9.17471 9.35 10.1933 9.35 11.4497C9.35 12.7062 10.3686 13.7247 11.625 13.7247Z" fill="#29B95F"/>
<path d="M11.625 0.074707C5.35311 0.074707 0.25 4.95529 0.25 10.9521C0.25 13.8079 1.55173 17.6057 4.11892 22.2403C6.18064 25.9614 8.56584 29.3262 9.80642 31.0005C10.0161 31.2866 10.2901 31.5192 10.6065 31.6796C10.9228 31.8399 11.2725 31.9235 11.6271 31.9235C11.9818 31.9235 12.3315 31.8399 12.6478 31.6796C12.9641 31.5192 13.2382 31.2866 13.4478 31.0005C14.6863 29.3262 17.0736 25.9614 19.1353 22.2403C21.6983 17.6071 23 13.8093 23 10.9521C23 4.95529 17.8969 0.074707 11.625 0.074707ZM11.625 15.9997C10.7251 15.9997 9.8454 15.7329 9.09716 15.2329C8.34891 14.7329 7.76573 14.0223 7.42135 13.1909C7.07697 12.3595 6.98686 11.4447 7.16243 10.562C7.33799 9.67943 7.77134 8.8687 8.40766 8.23237C9.04399 7.59604 9.85473 7.1627 10.7373 6.98713C11.62 6.81157 12.5348 6.90168 13.3662 7.24605C14.1976 7.59043 14.9082 8.17362 15.4082 8.92186C15.9081 9.67011 16.175 10.5498 16.175 11.4497C16.1737 12.656 15.6939 13.8126 14.8409 14.6656C13.9879 15.5186 12.8313 15.9984 11.625 15.9997Z" fill="#29B95F"/>
<path d="M16.4783 11.753C16.4783 14.4335 14.3054 16.6064 11.625 16.6064C8.94458 16.6064 6.77167 14.4335 6.77167 11.753C6.77167 9.07262 8.94458 6.89971 11.625 6.89971C14.3054 6.89971 16.4783 9.07262 16.4783 11.753Z" fill="#066C04"/>
</svg>
