<svg width="16" height="16" viewBox="0 0 16 16" fill="none" xmlns="http://www.w3.org/2000/svg">
<path d="M8.19996 8.14683C8.55568 7.83892 8.84099 7.45809 9.03654 7.03018C9.23209 6.60227 9.3333 6.1373 9.33329 5.66683C9.33329 4.78277 8.9821 3.93493 8.35698 3.30981C7.73186 2.68469 6.88401 2.3335 5.99996 2.3335C5.1159 2.3335 4.26806 2.68469 3.64294 3.30981C3.01782 3.93493 2.66663 4.78277 2.66663 5.66683C2.66662 6.1373 2.76783 6.60227 2.96338 7.03018C3.15893 7.45809 3.44424 7.83892 3.79996 8.14683C2.86672 8.56942 2.07494 9.25185 1.51928 10.1125C0.963623 10.9732 0.667607 11.9757 0.666626 13.0002C0.666626 13.177 0.736864 13.3465 0.861888 13.4716C0.986912 13.5966 1.15648 13.6668 1.33329 13.6668C1.5101 13.6668 1.67967 13.5966 1.8047 13.4716C1.92972 13.3465 1.99996 13.177 1.99996 13.0002C1.99996 11.9393 2.42139 10.9219 3.17153 10.1717C3.92168 9.42159 4.93909 9.00016 5.99996 9.00016C7.06083 9.00016 8.07824 9.42159 8.82839 10.1717C9.57853 10.9219 9.99996 11.9393 9.99996 13.0002C9.99996 13.177 10.0702 13.3465 10.1952 13.4716C10.3202 13.5966 10.4898 13.6668 10.6666 13.6668C10.8434 13.6668 11.013 13.5966 11.138 13.4716C11.2631 13.3465 11.3333 13.177 11.3333 13.0002C11.3323 11.9757 11.0363 10.9732 10.4806 10.1125C9.92498 9.25185 9.1332 8.56942 8.19996 8.14683ZM5.99996 7.66683C5.6044 7.66683 5.21772 7.54953 4.88882 7.32977C4.55992 7.11001 4.30358 6.79765 4.1522 6.4322C4.00083 6.06674 3.96122 5.66461 4.03839 5.27665C4.11556 4.88869 4.30604 4.53232 4.58575 4.25262C4.86545 3.97291 5.22182 3.78243 5.60978 3.70526C5.99774 3.62809 6.39987 3.6677 6.76533 3.81907C7.13078 3.97045 7.44314 4.22679 7.6629 4.55569C7.88266 4.88459 7.99996 5.27127 7.99996 5.66683C7.99996 6.19726 7.78925 6.70597 7.41417 7.08104C7.0391 7.45612 6.53039 7.66683 5.99996 7.66683ZM12.4933 7.88016C12.9199 7.39972 13.1986 6.8062 13.2958 6.17106C13.393 5.53591 13.3046 4.88621 13.0411 4.30016C12.7777 3.71411 12.3505 3.21669 11.8109 2.86778C11.2714 2.51886 10.6425 2.33332 9.99996 2.3335C9.82315 2.3335 9.65358 2.40373 9.52855 2.52876C9.40353 2.65378 9.33329 2.82335 9.33329 3.00016C9.33329 3.17697 9.40353 3.34654 9.52855 3.47157C9.65358 3.59659 9.82315 3.66683 9.99996 3.66683C10.5304 3.66683 11.0391 3.87754 11.4142 4.25262C11.7892 4.62769 12 5.1364 12 5.66683C11.999 6.01699 11.9062 6.36076 11.7307 6.66378C11.5552 6.96679 11.3032 7.21842 11 7.3935C10.9011 7.45051 10.8186 7.53194 10.7602 7.62999C10.7018 7.72804 10.6696 7.83943 10.6666 7.9535C10.6638 8.06667 10.6899 8.17869 10.7424 8.279C10.7949 8.37931 10.8721 8.4646 10.9666 8.52683L11.2266 8.70016L11.3133 8.74683C12.1169 9.12797 12.7948 9.73082 13.2673 10.4844C13.7397 11.2379 13.987 12.1108 13.98 13.0002C13.98 13.177 14.0502 13.3465 14.1752 13.4716C14.3002 13.5966 14.4698 13.6668 14.6466 13.6668C14.8234 13.6668 14.993 13.5966 15.118 13.4716C15.2431 13.3465 15.3133 13.177 15.3133 13.0002C15.3187 11.9771 15.0625 10.9697 14.5689 10.0735C14.0754 9.17741 13.3609 8.42237 12.4933 7.88016Z" fill="#6F6F6F"/>
</svg>
