<svg width="14" height="14" viewBox="0 0 14 14" fill="none" xmlns="http://www.w3.org/2000/svg">
<path d="M12.8333 6.16683H7.83333V1.16683C7.83333 0.945816 7.74553 0.733854 7.58925 0.577574C7.43297 0.421294 7.22101 0.333496 6.99999 0.333496C6.77898 0.333496 6.56702 0.421294 6.41074 0.577574C6.25446 0.733854 6.16666 0.945816 6.16666 1.16683V6.16683H1.16666C0.945648 6.16683 0.733686 6.25463 0.577406 6.41091C0.421126 6.56719 0.333328 6.77915 0.333328 7.00016C0.333328 7.22118 0.421126 7.43314 0.577406 7.58942C0.733686 7.7457 0.945648 7.8335 1.16666 7.8335H6.16666V12.8335C6.16666 13.0545 6.25446 13.2665 6.41074 13.4228C6.56702 13.579 6.77898 13.6668 6.99999 13.6668C7.22101 13.6668 7.43297 13.579 7.58925 13.4228C7.74553 13.2665 7.83333 13.0545 7.83333 12.8335V7.8335H12.8333C13.0543 7.8335 13.2663 7.7457 13.4226 7.58942C13.5789 7.43314 13.6667 7.22118 13.6667 7.00016C13.6667 6.77915 13.5789 6.56719 13.4226 6.41091C13.2663 6.25463 13.0543 6.16683 12.8333 6.16683Z" fill="white"/>
</svg>
