<svg width="27" height="28" viewBox="0 0 27 28" fill="none" xmlns="http://www.w3.org/2000/svg">
<path d="M15.0862 14L19.9237 9.17371C20.1355 8.96187 20.2545 8.67455 20.2545 8.37496C20.2545 8.07538 20.1355 7.78806 19.9237 7.57621C19.7118 7.36437 19.4245 7.24536 19.1249 7.24536C18.8253 7.24536 18.538 7.36437 18.3262 7.57621L13.4999 12.4137L8.67368 7.57621C8.46184 7.36437 8.17452 7.24536 7.87493 7.24536C7.57534 7.24536 7.28802 7.36437 7.07618 7.57621C6.86434 7.78806 6.74533 8.07538 6.74533 8.37496C6.74533 8.67455 6.86434 8.96187 7.07618 9.17371L11.9137 14L7.07618 18.8262C6.97074 18.9308 6.88704 19.0552 6.82993 19.1923C6.77281 19.3294 6.74341 19.4765 6.74341 19.625C6.74341 19.7735 6.77281 19.9205 6.82993 20.0576C6.88704 20.1947 6.97074 20.3191 7.07618 20.4237C7.18076 20.5292 7.30519 20.6129 7.44228 20.67C7.57937 20.7271 7.72642 20.7565 7.87493 20.7565C8.02344 20.7565 8.17049 20.7271 8.30758 20.67C8.44467 20.6129 8.5691 20.5292 8.67368 20.4237L13.4999 15.5862L18.3262 20.4237C18.4308 20.5292 18.5552 20.6129 18.6923 20.67C18.8294 20.7271 18.9764 20.7565 19.1249 20.7565C19.2734 20.7565 19.4205 20.7271 19.5576 20.67C19.6947 20.6129 19.8191 20.5292 19.9237 20.4237C20.0291 20.3191 20.1128 20.1947 20.1699 20.0576C20.227 19.9205 20.2565 19.7735 20.2565 19.625C20.2565 19.4765 20.227 19.3294 20.1699 19.1923C20.1128 19.0552 20.0291 18.9308 19.9237 18.8262L15.0862 14Z" fill="#6F6F6F"/>
</svg>
