<svg width="183" height="182" viewBox="0 0 183 182" fill="none" xmlns="http://www.w3.org/2000/svg">
<path d="M16 152L3.5 130.5L16 109.5H80L92 130.5H28L16 152Z" fill="#CF152D" stroke="#CF152D"/>
<path d="M31.5 180.5L19 159L31.5 138H95.5L107.5 159H43.5L31.5 180.5Z" fill="#0E1D61" stroke="#0E1D61"/>
<path d="M71.1878 25.792L96.0574 25.7167L107.994 47.042L75.9939 102.468L51.8074 102.36L83.8074 46.9343L71.1878 25.792Z" fill="#CF152D" stroke="#CF152D"/>
<path d="M38.7561 24.9653L63.6256 24.89L75.5621 46.2153L43.5621 101.641L19.3756 101.533L51.3756 46.1076L38.7561 24.9653Z" fill="#0E1D61" stroke="#0E1D61"/>
<path d="M151.556 137.208L139.187 158.783L114.75 158.458L82.75 103.032L94.9365 82.14L126.937 137.566L151.556 137.208Z" fill="#CF152D" stroke="#CF152D"/>
<path d="M168.488 109.535L156.118 131.11L131.682 130.785L99.6818 75.3589L111.868 54.4666L143.868 109.892L168.488 109.535Z" fill="#0E1D61" stroke="#0E1D61"/>
</svg>
