<svg width="19" height="19" viewBox="0 0 19 19" fill="none" xmlns="http://www.w3.org/2000/svg">
<path d="M8.20451 2.375C7.05155 2.375 5.92447 2.7169 4.96581 3.35745C4.00715 3.998 3.25997 4.90845 2.81875 5.97365C2.37753 7.03886 2.26208 8.21098 2.48702 9.34179C2.71195 10.4726 3.26716 11.5113 4.08243 12.3266C4.8977 13.1419 5.93642 13.6971 7.06723 13.922C8.19805 14.1469 9.37017 14.0315 10.4354 13.5903C11.5006 13.1491 12.411 12.4019 13.0516 11.4432C13.6921 10.4846 14.034 9.35748 14.034 8.20451C14.0339 6.65846 13.4197 5.17576 12.3265 4.08253C11.2333 2.98931 9.75057 2.3751 8.20451 2.375Z" stroke="#6F6F6F" stroke-width="1.1875" stroke-miterlimit="10"/>
<path d="M12.5537 12.5537L16.625 16.625" stroke="#6F6F6F" stroke-width="1.1875" stroke-miterlimit="10" stroke-linecap="round"/>
</svg>
