<svg width="22" height="22" viewBox="0 0 22 22" fill="none" xmlns="http://www.w3.org/2000/svg">
<path d="M5.5 13.0625C6.63909 13.0625 7.5625 12.1391 7.5625 11C7.5625 9.86091 6.63909 8.9375 5.5 8.9375C4.36091 8.9375 3.4375 9.86091 3.4375 11C3.4375 12.1391 4.36091 13.0625 5.5 13.0625Z" stroke="#313131" stroke-width="1.375" stroke-linecap="round" stroke-linejoin="round"/>
<path d="M16.5 6.875C17.6391 6.875 18.5625 5.95159 18.5625 4.8125C18.5625 3.67341 17.6391 2.75 16.5 2.75C15.3609 2.75 14.4375 3.67341 14.4375 4.8125C14.4375 5.95159 15.3609 6.875 16.5 6.875Z" stroke="#313131" stroke-width="1.375" stroke-linecap="round" stroke-linejoin="round"/>
<path d="M16.5 19.25C17.6391 19.25 18.5625 18.3266 18.5625 17.1875C18.5625 16.0484 17.6391 15.125 16.5 15.125C15.3609 15.125 14.4375 16.0484 14.4375 17.1875C14.4375 18.3266 15.3609 19.25 16.5 19.25Z" stroke="#313131" stroke-width="1.375" stroke-linecap="round" stroke-linejoin="round"/>
<path d="M7.29736 12.011L14.7026 16.1764M14.7026 5.82349L7.29736 9.98888" stroke="#313131" stroke-width="1.375" stroke-linecap="round" stroke-linejoin="round"/>
</svg>
