<svg width="60" height="60" viewBox="0 0 60 60" fill="none" xmlns="http://www.w3.org/2000/svg">
<path d="M30 26.25C32.0711 26.25 33.75 24.5711 33.75 22.5C33.75 20.4289 32.0711 18.75 30 18.75C27.9289 18.75 26.25 20.4289 26.25 22.5C26.25 24.5711 27.9289 26.25 30 26.25Z" fill="#EA4335"/>
<path d="M30 3.75C19.6617 3.75 11.25 11.7949 11.25 21.6797C11.25 26.3871 13.3957 32.6473 17.6273 40.2867C21.0258 46.4203 24.9574 51.9668 27.0023 54.7266C27.3479 55.1981 27.7997 55.5816 28.3211 55.8459C28.8425 56.1103 29.4189 56.248 30.0035 56.248C30.5881 56.248 31.1645 56.1103 31.6859 55.8459C32.2073 55.5816 32.6591 55.1981 33.0047 54.7266C35.0461 51.9668 38.9813 46.4203 42.3797 40.2867C46.6043 32.6496 48.75 26.3895 48.75 21.6797C48.75 11.7949 40.3383 3.75 30 3.75ZM30 30C28.5166 30 27.0666 29.5601 25.8332 28.736C24.5999 27.9119 23.6386 26.7406 23.0709 25.3701C22.5032 23.9997 22.3547 22.4917 22.6441 21.0368C22.9335 19.582 23.6478 18.2456 24.6967 17.1967C25.7456 16.1478 27.082 15.4335 28.5368 15.1441C29.9917 14.8547 31.4997 15.0032 32.8701 15.5709C34.2406 16.1386 35.4119 17.0999 36.236 18.3332C37.0601 19.5666 37.5 21.0166 37.5 22.5C37.4978 24.4885 36.707 26.3949 35.3009 27.8009C33.8949 29.207 31.9885 29.9978 30 30Z" fill="#EA4335"/>
</svg>
